<svg version="1.1" id="Layer_1" xmlns="http://www.w3.org/2000/svg" xmlns:xlink="http://www.w3.org/1999/xlink" x="0px" y="0px"
     width="718.3px" height="115.9px" viewBox="0 0 718.3 115.9" style="enable-background:new 0 0 718.3 115.9;" xml:space="preserve">
  <g fill="#ffffff">
    <!-- Lesbian Pride Flag Colors -->
    <polygon id="SVGID_1_" points="75.9,0 75.9,43 25.5,43 25.5,0 0,0 0,115.9 25.8,115.9 25.8,66.4 75.9,66.4 75.9,115.9 101.3,115.9 101.3,0" fill="#D6298B"/>

    <!-- Non-Binary Pride Flag Colors -->
    <polygon id="SVGID_3_" points="246.8,0 246.8,115.9 317.6,115.9 317.6,92.4 272.6,92.4 272.6,0" fill="#FFFF9B"/>

    <!-- Pansexual Pride Flag Colors -->
    <rect id="SVGID_5_" x="343.1" y="0" width="25.5" height="115.9" fill="#FF1B8D"/>

    <!-- Bisexual Pride Flag Colors -->
    <polygon id="SVGID_7_" points="163,0 115.6,115.9 142.8,115.9 173.9,37.9 205.6,115.9 232.9,115.9 185.5,0" fill="#D70076"/>

    <!-- Transgender Pride Flag Colors -->
    <polygon id="SVGID_9_" points="398.2,0 398.2,115.9 423.7,115.9 423.7,69.9 469.9,69.9 469.9,46.8 423.7,46.8 423.7,23.1 474.4,23.1 474.4,0" fill="#55CDFC"/>

    <!-- Genderqueer Pride Flag Colors -->
    <path id="SVGID_11_" d="M638.8,115.9h-27.9l37.8-59.5L613,0h28.7l22.8,36.4L687.4,0h28.7l-35.7,56.4l37.8,59.5h-27.9l-25.8-40 L638.8,115.9z" fill="#B57EDC"/>

    <!-- Asexual Pride Flag Colors -->
    <polygon id="SVGID_13_" points="524.7,0 477.3,115.9 504.6,115.9 535.7,37.9 567.4,115.9 594.7,115.9 547.3,0" fill="#000000"/>
  </g>
</svg>
